<svg width="911" height="138" viewBox="0 0 911 138" fill="none" xmlns="http://www.w3.org/2000/svg">
<path d="M112.54 106.41V137.88H87.07C56.03 137.58 31.25 111.82 31.25 80.79V36.6C31.25 33.7 28.9 31.35 26 31.35H0V0H31.35V26C31.35 28.9 33.7 31.25 36.6 31.25H62.71V81.04C62.71 94.64 73.42 106.09 87.02 106.41H112.54Z" fill="#2D51C9"/>
<path d="M144 18.3H112.54V105.32H144V18.3Z" fill="#2D51C9"/>
<path d="M360.43 97.79H354.01V125.4H360.43V97.79Z" fill="#2D51C9"/>
<path d="M400.14 102.71H387.41V125.4H380.98V102.71H368.3V97.79H400.14V102.71Z" fill="#2D51C9"/>
<path d="M458.68 118.87C458.68 121.44 458.18 123.17 457.18 124.06C456.18 124.95 454.38 125.4 451.78 125.4H434.71C431.89 125.4 430.04 124.9 429.14 123.9C428.25 122.9 427.8 120.98 427.8 118.12L433.47 116.94V120.2H453V113.89H435.77C433.17 113.89 431.37 113.45 430.39 112.55C429.41 111.66 428.92 109.93 428.92 107.36V104.31C428.92 101.74 429.41 100.01 430.39 99.12C431.37 98.23 433.16 97.78 435.77 97.78H451.45C454.09 97.78 455.89 98.24 456.85 99.15C457.81 100.06 458.29 101.82 458.29 104.42L452.62 105.76V102.6H434.53V108.54H451.76C454.36 108.54 456.17 108.99 457.16 109.88C458.16 110.77 458.66 112.5 458.66 115.07V118.87H458.68Z" fill="#2D51C9"/>
<path d="M505.45 118.87C505.45 121.44 504.96 123.17 503.98 124.06C503 124.95 501.21 125.4 498.6 125.4H478.27C475.67 125.4 473.87 124.95 472.89 124.06C471.91 123.17 471.42 121.44 471.42 118.87V104.31C471.42 101.74 471.91 100.01 472.89 99.12C473.87 98.23 475.66 97.78 478.27 97.78H498.6C501.2 97.78 503 98.23 503.98 99.12C504.96 100.01 505.45 101.74 505.45 104.31V118.87ZM499.03 102.71H477.84V120.21H499.03V102.71Z" fill="#2D51C9"/>
<path d="M546.12 125.4H518.99V97.79H525.41V120.21H546.12V125.4Z" fill="#2D51C9"/>
<path d="M585.66 118.87C585.66 121.44 585.17 123.17 584.19 124.06C583.21 124.95 581.42 125.4 578.81 125.4H561.37C558.77 125.4 556.97 124.95 555.99 124.06C555.01 123.17 554.52 121.44 554.52 118.87V97.79H560.94V120.21H579.24V97.79H585.66V118.87Z" fill="#2D51C9"/>
<path d="M625.37 102.71H612.63V125.4H606.21V102.71H593.53V97.79H625.37V102.71Z" fill="#2D51C9"/>
<path d="M639.65 97.79H633.23V125.4H639.65V97.79Z" fill="#2D51C9"/>
<path d="M687.22 118.87C687.22 121.44 686.73 123.17 685.75 124.06C684.77 124.95 682.98 125.4 680.37 125.4H660.04C657.44 125.4 655.64 124.95 654.66 124.06C653.68 123.17 653.19 121.44 653.19 118.87V104.31C653.19 101.74 653.68 100.01 654.66 99.12C655.64 98.23 657.43 97.78 660.04 97.78H680.37C682.97 97.78 684.77 98.23 685.75 99.12C686.73 100.01 687.22 101.74 687.22 104.31V118.87ZM680.8 102.71H659.61V120.21H680.8V102.71Z" fill="#2D51C9"/>
<path d="M733.19 125.4H728.8L708.52 108.33C707.66 107.62 706.9 106.87 706.22 106.08C706.4 107.86 706.49 109.27 706.49 110.31V125.4H700.71V97.79H705.1L724.52 114.06C725.91 115.24 726.96 116.24 727.68 117.06C727.5 114.49 727.41 112.9 727.41 112.3V97.8H733.19V125.4Z" fill="#2D51C9"/>
<path d="M212.57 32.06H222.7V81.7H212.57V49.4L198.95 76.08C195.95 81.18 191.56 83.36 185.78 82.61C182.18 82.09 179.7 80.7 178.35 78.45C177 76.2 176.32 73.72 176.32 71.02V32.07H186.34V70.34C186.34 70.94 186.51 71.52 186.85 72.09C187.19 72.65 187.7 73.01 188.37 73.16C190.17 73.54 191.48 72.93 192.31 71.36L212.57 32.06Z" fill="#2D51C9"/>
<path d="M231.71 12.59H241.73V81.82H231.71V12.59Z" fill="#2D51C9"/>
<path d="M250.73 12.59H260.75V81.82H250.73V12.59Z" fill="#2D51C9"/>
<path d="M314.1 62.01L316.91 81.82H306.44L305.09 73.04C299.91 79.19 293.57 82.42 286.07 82.72C284.04 82.79 281.6 82.48 278.75 81.76C275.9 81.05 273.33 79.62 271.04 77.48C268.75 75.34 267.61 72.29 267.61 68.31C267.61 64.48 268.57 61.54 270.48 59.47C272.39 57.41 274.68 55.96 277.35 55.14C280.01 54.32 283.52 53.56 287.87 52.89C292.3 52.14 295.67 51.33 298 50.47C300.33 49.61 301.83 48.13 302.5 46.02C303.17 44.22 302.56 42.46 300.64 40.73C298.73 39.01 295.37 38.33 290.57 38.7C283.52 39.3 278.79 42.79 276.39 49.17L268.74 47.14C270.17 42.49 272.79 38.75 276.62 35.94C280.45 33.13 285.1 31.49 290.58 31.04C295.68 30.66 300.54 31.43 305.16 33.35C309.77 35.26 312.27 38.74 312.65 43.76C312.95 47.29 312.22 50.05 310.45 52.03C308.69 54.02 306.47 55.46 303.81 56.36C301.15 57.26 297.67 58.12 293.4 58.95C288.52 59.93 284.88 60.94 282.48 61.99C280.08 63.04 278.77 64.8 278.54 67.28C278.39 69.01 278.89 70.58 280.06 72.01C281.22 73.44 283.27 74.15 286.2 74.15C290.33 74.15 294.17 72.78 297.74 70.04C301.3 67.3 303.5 64.62 304.32 61.99H314.1V62.01Z" fill="#2D51C9"/>
<path d="M348.54 75.4C348.54 75.4 349.55 74.54 351.58 72.81C353.61 71.09 354.32 69.17 353.72 67.07C353.34 65.64 352.24 64.52 350.4 63.69C348.56 62.87 345.77 61.97 342.01 60.99C338.11 59.94 334.86 58.91 332.27 57.9C329.68 56.89 327.41 55.41 325.46 53.45C323.51 51.5 322.42 48.91 322.2 45.68C321.82 41.1 323.45 37.45 327.1 34.71C330.74 31.97 335.94 30.83 342.69 31.28C346.22 31.43 349.29 32.09 351.92 33.25C354.55 34.42 356.61 35.69 358.11 37.08C359.61 38.47 361.07 40.4 362.5 42.88L356.76 47.72C354.51 44.72 352.35 42.58 350.29 41.3C348.23 40.02 345.69 39.24 342.69 38.94C339.54 38.64 336.95 38.98 334.92 39.95C332.89 40.93 331.95 42.46 332.11 44.56C332.26 46.21 333.27 47.49 335.15 48.39C337.03 49.29 339.95 50.3 343.93 51.43C347.91 52.56 351.17 53.64 353.72 54.69C356.27 55.74 358.52 57.26 360.47 59.25C362.42 61.24 363.51 63.85 363.73 67.07C364.1 72.47 362.19 76.52 357.99 79.23C353.79 81.93 348.5 83.06 342.12 82.61C338.59 82.39 335.5 81.67 332.83 80.47C330.17 79.27 328.01 77.92 326.36 76.42C324.71 74.92 323.02 72.82 321.29 70.12L328.38 66.18C330.48 68.96 332.51 70.95 334.46 72.15C336.41 73.35 338.81 74.14 341.66 74.51C346.25 75.1 348.54 75.4 348.54 75.4Z" fill="#2D51C9"/>
<path d="M391.71 23.06C390.47 21.86 389.85 20.4 389.85 18.67C389.85 16.94 390.47 15.48 391.71 14.28C392.95 13.08 394.43 12.48 396.16 12.48C397.88 12.48 399.37 13.08 400.61 14.28C401.85 15.48 402.47 16.94 402.47 18.67C402.47 20.4 401.85 21.86 400.61 23.06C399.37 24.26 397.89 24.86 396.16 24.86C394.43 24.86 392.95 24.26 391.71 23.06ZM391.31 81.82H401.44V32.18H391.31V81.82Z" fill="#2D51C9"/>
<path d="M419.79 81.82H409.77V32.18H419.79V64.6L433.52 37.81C436.52 32.71 440.87 30.53 446.58 31.28C450.25 31.8 452.77 33.19 454.12 35.44C455.47 37.69 456.15 40.17 456.15 42.87V81.82H446.02V43.55C446.02 42.95 445.87 42.37 445.57 41.8C445.27 41.24 444.78 40.88 444.11 40.73C442.23 40.36 440.88 40.96 440.06 42.53L419.79 81.82Z" fill="#2D51C9"/>
<path d="M505.78 50.3C504.58 47.15 502.53 44.58 499.65 42.59C496.76 40.6 493.63 39.61 490.25 39.61C485.67 39.61 481.71 41.32 478.37 44.73C475.03 48.15 473.36 52.22 473.36 56.94C473.36 61.67 475.03 65.72 478.37 69.1C481.71 72.48 485.67 74.17 490.25 74.17C493.63 74.17 496.74 73.18 499.59 71.19C502.44 69.2 504.5 66.67 505.78 63.59H515.8L519.06 81.83H509.04L507.46 74.29C504.98 76.99 502.38 79.04 499.64 80.42C496.9 81.81 493.51 82.58 489.45 82.73C484.42 82.88 479.88 81.81 475.83 79.52C471.78 77.23 468.61 74.08 466.32 70.06C464.03 66.05 462.89 61.67 462.89 56.95C462.89 52.3 464.09 47.93 466.49 43.84C468.89 39.75 472.12 36.54 476.17 34.22C480.22 31.9 484.65 30.88 489.45 31.18C495.75 31.56 501.19 33.96 505.77 38.38V12.6H515.79V50.31H505.78V50.3Z" fill="#2D51C9"/>
<path d="M525.99 23.06C524.75 21.86 524.13 20.4 524.13 18.67C524.13 16.94 524.75 15.48 525.99 14.28C527.23 13.08 528.71 12.48 530.44 12.48C532.16 12.48 533.65 13.08 534.89 14.28C536.13 15.48 536.75 16.94 536.75 18.67C536.75 20.4 536.13 21.86 534.89 23.06C533.65 24.26 532.17 24.86 530.44 24.86C528.71 24.86 527.23 24.26 525.99 23.06ZM525.6 81.82H535.73V32.18H525.6V81.82Z" fill="#2D51C9"/>
<path d="M588.4 62.01L591.21 81.82H580.74L579.39 73.04C574.21 79.19 567.87 82.42 560.37 82.72C558.34 82.79 555.9 82.48 553.05 81.76C550.2 81.05 547.63 79.62 545.34 77.48C543.05 75.34 541.91 72.29 541.91 68.31C541.91 64.48 542.87 61.54 544.78 59.47C546.69 57.41 548.98 55.96 551.65 55.14C554.31 54.32 557.82 53.56 562.17 52.89C566.6 52.14 569.97 51.33 572.3 50.47C574.63 49.61 576.13 48.13 576.8 46.02C577.47 44.22 576.86 42.46 574.94 40.73C573.03 39.01 569.67 38.33 564.87 38.7C557.82 39.3 553.09 42.79 550.69 49.17L543.04 47.14C544.47 42.49 547.09 38.75 550.92 35.94C554.75 33.13 559.4 31.49 564.88 31.04C569.98 30.66 574.84 31.43 579.46 33.35C584.07 35.26 586.57 38.74 586.95 43.76C587.25 47.29 586.52 50.05 584.75 52.03C582.99 54.02 580.77 55.46 578.11 56.36C575.45 57.26 571.97 58.12 567.7 58.95C562.82 59.93 559.18 60.94 556.78 61.99C554.38 63.04 553.07 64.8 552.84 67.28C552.69 69.01 553.19 70.58 554.36 72.01C555.52 73.44 557.57 74.15 560.5 74.15C564.63 74.15 568.47 72.78 572.04 70.04C575.6 67.3 577.8 64.62 578.62 61.99H588.4V62.01Z" fill="#2D51C9"/>
<path d="M618.79 12.59H628.81V81.82H618.79V12.59Z" fill="#2D51C9"/>
<path d="M637.98 23.06C636.74 21.86 636.12 20.4 636.12 18.67C636.12 16.94 636.74 15.48 637.98 14.28C639.22 13.08 640.7 12.48 642.43 12.48C644.15 12.48 645.64 13.08 646.88 14.28C648.12 15.48 648.74 16.94 648.74 18.67C648.74 20.4 648.12 21.86 646.88 23.06C645.64 24.26 644.16 24.86 642.43 24.86C640.7 24.86 639.22 24.26 637.98 23.06ZM637.59 81.82H647.72V32.18H637.59V81.82Z" fill="#2D51C9"/>
<path d="M698.14 81.82H688.01V43.66C688.01 42.99 687.86 42.37 687.56 41.8C687.26 41.24 686.77 40.88 686.1 40.73C684.22 40.36 682.87 40.96 682.05 42.53L666.07 81.81H656.05V32.17H666.07V60.87L675.19 38.47C677.59 32.84 682.06 30.48 688.59 31.38C692.27 31.83 694.76 33.2 696.08 35.49C697.39 37.78 698.05 40.24 698.05 42.86L698.16 60.87L707.16 38.47C709.56 32.84 714.06 30.48 720.67 31.38C724.27 31.83 726.75 33.2 728.1 35.49C729.45 37.78 730.13 40.24 730.13 42.86V81.81H720.11V43.65C720.11 42.98 719.94 42.36 719.6 41.79C719.26 41.23 718.76 40.87 718.08 40.72C716.28 40.35 714.96 40.95 714.14 42.52L698.14 81.82Z" fill="#2D51C9"/>
<path d="M739.28 23.06C738.04 21.86 737.42 20.4 737.42 18.67C737.42 16.94 738.04 15.48 739.28 14.28C740.52 13.08 742 12.48 743.73 12.48C745.45 12.48 746.94 13.08 748.18 14.28C749.42 15.48 750.04 16.94 750.04 18.67C750.04 20.4 749.42 21.86 748.18 23.06C746.94 24.26 745.46 24.86 743.73 24.86C742 24.86 740.52 24.26 739.28 23.06ZM738.89 81.82H749.02V32.18H738.89V81.82Z" fill="#2D51C9"/>
<path d="M787.4 74.16C784.85 74.16 782.86 73.75 781.43 72.92C780 71.79 779.29 69.88 779.29 67.18V40.61H791.59V32.3H755.09V40.61H769.39V67.18C769.39 72.43 771.19 76.41 774.79 79.11C778.02 81.51 782.22 82.71 787.4 82.71C788.45 82.71 789.76 82.63 791.34 82.48L793.59 82.14V73.36L790.44 73.94C789.84 74.09 788.83 74.16 787.4 74.16Z" fill="#2D51C9"/>
<path d="M798.09 54.01C798.99 47.48 801.92 42.04 806.87 37.69C811.82 33.34 817.68 31.16 824.43 31.16C828.18 31.16 831.54 31.8 834.5 33.07C837.46 34.35 839.9 35.83 841.82 37.52C843.73 39.21 845.78 41.63 847.95 44.78L813.39 69.09C816.77 72.47 820.74 74.16 825.32 74.16C827.8 74.16 830.03 73.71 832.02 72.81C834.01 71.91 835.64 70.88 836.92 69.72C838.2 68.56 839.58 66.89 841.08 64.71L847.83 69.1C845.58 72.25 843.48 74.67 841.53 76.36C839.58 78.05 837.14 79.53 834.21 80.81C831.28 82.09 828.02 82.72 824.42 82.72C819.32 82.72 814.63 81.41 810.35 78.78C806.07 76.16 802.84 72.66 800.67 68.31L836.24 43.32C833.16 40.84 829.52 39.61 825.32 39.61C821.27 39.61 817.65 40.98 814.46 43.72C811.27 46.46 809.34 49.89 808.66 54.02H798.09V54.01Z" fill="#2D51C9"/>
<path d="M897.59 50.3C896.39 47.15 894.34 44.58 891.46 42.59C888.57 40.6 885.44 39.61 882.06 39.61C877.48 39.61 873.52 41.32 870.18 44.73C866.84 48.15 865.17 52.22 865.17 56.94C865.17 61.67 866.84 65.72 870.18 69.1C873.52 72.48 877.48 74.17 882.06 74.17C885.44 74.17 888.55 73.18 891.4 71.19C894.25 69.2 896.31 66.67 897.59 63.59H907.61L910.87 81.83H900.85L899.27 74.29C896.79 76.99 894.19 79.04 891.45 80.42C888.71 81.81 885.32 82.58 881.26 82.73C876.23 82.88 871.69 81.81 867.64 79.52C863.59 77.23 860.42 74.08 858.13 70.06C855.84 66.05 854.7 61.67 854.7 56.95C854.7 52.3 855.9 47.93 858.3 43.84C860.7 39.75 863.93 36.54 867.98 34.22C872.03 31.9 876.46 30.88 881.26 31.18C887.56 31.56 893 33.96 897.58 38.38V12.6H907.6V50.31H897.59V50.3Z" fill="#2D51C9"/>
<path d="M779.18 50.01H769.35V19.43H771.75C775.86 19.43 779.18 22.76 779.18 26.86V50.01Z" fill="#2D51C9"/>
<path d="M907.61 50.3V64.06L899.48 68.38L897.59 63.58V50.3L901.6 44.29L907.61 50.3Z" fill="#2D51C9"/>
</svg>
